<svg width="2350" height="2350" viewBox="0 0 2350 2350" fill="none" xmlns="http://www.w3.org/2000/svg">
<path fill-rule="evenodd" clip-rule="evenodd" d="M836.624 461.504C832.499 461.659 816.074 462.466 800.124 463.298C784.174 464.13 761.224 465.286 749.124 465.866C737.024 466.447 722.555 467.587 716.971 468.4C686.328 472.861 671.812 485.734 675.587 505.1C677.991 517.432 687.521 530.631 699.963 538.86C707.283 543.701 724.721 552.226 752.124 564.359C788.478 580.455 810.4 592.311 838.624 611.142C869.486 631.734 888.189 642.286 907.399 649.946C919.719 654.858 950.442 665.086 986.844 676.393C1029.73 689.713 1038.52 693.35 1050.26 702.634C1057.08 708.023 1061.76 716.942 1062.39 725.76C1063.47 740.947 1057.64 753.828 1039.48 776.325C1032.83 784.575 1023.08 796.95 1017.82 803.825C976.632 857.705 965.404 867.763 891.124 917.323C861.5 937.089 822.627 961.733 805.124 971.845C800.174 974.704 788.474 980.867 779.124 985.539C750.845 999.67 739.575 1008.43 733.721 1020.82C731.449 1025.64 731.13 1027.57 731.174 1036.32C731.217 1044.82 731.623 1047.27 733.878 1052.63C741.234 1070.12 753.868 1081.9 801.124 1115.33C828.54 1134.73 853.686 1153.55 866.018 1163.9C871.46 1168.46 888.927 1184.96 904.833 1200.56C920.74 1216.17 937.229 1231.51 941.476 1234.65C956.686 1245.93 969.413 1251.25 1001.78 1259.84C1046.25 1271.64 1058.66 1279.13 1110.08 1325.23C1176.15 1384.47 1230.75 1425.89 1289.19 1461.08C1311.45 1474.49 1371.71 1509.02 1392.62 1520.34C1437.32 1544.55 1466.07 1554.45 1514.62 1562.35C1526.45 1564.27 1544.36 1567.19 1554.42 1568.83C1564.48 1570.48 1580.01 1573.45 1588.92 1575.44C1623.48 1583.16 1644.14 1580.61 1656.81 1567.06C1665.39 1557.89 1670.1 1544.78 1671.26 1526.89C1671.86 1517.64 1670.62 1492.37 1668.61 1472.82C1662.94 1417.66 1660.73 1364.92 1662.47 1325.86C1663.71 1298 1664.08 1293.77 1669.5 1245.32C1675.2 1194.41 1675.12 1196.56 1675.12 1088.82C1675.12 970.278 1675.36 973.848 1663.62 914.325C1654.32 867.163 1651.28 840.801 1651.21 806.825C1651.17 785.711 1651.55 778.573 1653.39 765.325C1656.35 744.089 1656.42 723.539 1653.58 709.608C1651.64 700.085 1636.62 657.513 1625.97 631.325C1616.88 608.981 1606 592.194 1590.63 576.786C1578.05 564.169 1566.42 556.147 1547.12 546.773C1523.33 535.215 1472.73 516.007 1444.48 507.812C1393.53 493.029 1293.91 475.911 1226.62 470.373C1186.36 467.06 1176.58 466.692 1105.62 465.821C1065.2 465.324 1024.47 464.446 1015.12 463.869C978.448 461.607 871.583 460.191 836.624 461.504ZM1370.24 912.738C1379.94 917.143 1383.7 927.633 1383.71 950.325C1383.71 967.29 1382.64 977.602 1375.64 1027.82C1368.06 1082.22 1366.95 1091.33 1362.67 1133.82C1358.39 1176.33 1356.75 1187.69 1353.46 1197.82C1350.66 1206.45 1349.22 1209.16 1344.82 1214.04C1339.77 1219.63 1334.68 1221.78 1326.35 1221.8C1313.06 1221.85 1299.43 1215.25 1277.6 1198.21C1260.36 1184.76 1229.26 1164.05 1205.62 1150.28C1179.6 1135.13 1174.09 1131.37 1166.07 1123.37C1151.93 1109.26 1149.38 1094.2 1158.05 1076.13C1165.42 1060.76 1178.87 1047.69 1227.62 1008.53C1263.56 979.661 1286.31 960.745 1303.77 945.228C1320.47 930.387 1329.6 923.391 1338.94 918.291C1352.22 911.035 1362.48 909.215 1370.24 912.738ZM979.624 1475.46C978.249 1475.64 963.551 1476.48 946.962 1477.32C930.373 1478.15 912.823 1479.52 907.962 1480.35C885.382 1484.2 871.863 1490.78 856.755 1505.26C846.886 1514.72 839.692 1524.33 825.379 1547.18C818.783 1557.71 806.077 1577.12 797.143 1590.32C773.443 1625.34 767.166 1637.34 762.394 1656.76C759.64 1667.96 759.458 1691.35 762.032 1703.16C767.834 1729.78 782.287 1755.67 801.792 1774.39C812.156 1784.34 819.815 1789.61 833.265 1796.03C843.748 1801.04 855 1804.24 883.624 1810.34C909.981 1815.96 926.59 1822.92 947.407 1837.05C954.105 1841.6 968.932 1851.67 980.355 1859.43C1006.52 1877.2 1014.76 1881.91 1026.6 1885.87C1043.55 1891.55 1057.29 1890.8 1069.55 1883.54C1077.41 1878.88 1088.14 1867.74 1095.79 1856.3C1105.14 1842.3 1140.39 1781.36 1149.69 1763.11C1187.91 1688.1 1197.66 1599.73 1173.1 1550.82C1158.3 1521.33 1126.89 1500.26 1075.45 1485.31C1060.96 1481.1 1042.7 1477.3 1030.12 1475.87C1021.97 1474.94 985.713 1474.64 979.624 1475.46Z" fill="#1249FF"/>
</svg>
